# xmcd CD database file
# Copyright (C) 1995-1998 Ti Kan
#
# Track frame offsets:
#	150
#	17629
#	39437
#	59061
#	74346
#	88067
#	102040
#	116383
#	133795
#	151172
#	165566
#	181969
#	194957
#	210719
#	226088
#	241236
#	258311
#	279795
#
# Disc length: 3959 seconds
#
# Revision: 1
# Processed by: cddbd v1.4b41PL1 Copyright (c) Steve Scherf et al.
# Submitted via: CDex 1.30Release
#
DISCID=f40f7512
DTITLE=Kenny Rogers - Through The Years - Disc One
DYEAR=1900
DGENRE=Country
TTITLE0=Lady
TTITLE1=Have I Told You Lately That I Love You
TTITLE2=She Believes In Me
TTITLE3=Can't Help Falling In Love
TTITLE4=I Will Always Love You
TTITLE5=Love Me Tender
TTITLE6=You Are So Beautiful
TTITLE7=I Swear
TTITLE8=Endless Love
TTITLE9=You Light Up My Life
TTITLE10=Wind beneath My Wings
TTITLE11=As Time Goes By
TTITLE12=Unchained Melody
TTITLE13=Unforgettable
TTITLE14=Misty
TTITLE15=When A Man Loves A Woman
TTITLE16=Always And Forever
TTITLE17=You Decorated My Life
EXTD=ID3G:   2
EXTT0=
EXTT1=
EXTT2=
EXTT3=
EXTT4=
EXTT5=
EXTT6=
EXTT7=
EXTT8=
EXTT9=
EXTT10=
EXTT11=
EXTT12=
EXTT13=
EXTT14=
EXTT15=
EXTT16=
EXTT17=
PLAYORDER=
